<svg width="27" height="33" viewBox="0 0 27 33" fill="none" xmlns="http://www.w3.org/2000/svg">
<path d="M19.3907 22.5382L19.7103 14.2291C19.7578 12.9942 19.3463 11.7854 18.5551 10.836L15.5949 7.28378L11.714 2.80581C10.735 1.67621 9.26027 1.10455 7.77571 1.27921C5.19863 1.58239 3.40722 3.99084 3.85809 6.54622L4.99961 13.0159C5.3307 14.8924 6.72484 16.435 8.25016 17.5771C11.9895 20.3768 15.929 25.5511 17.2706 23.2027C17.4775 22.8406 18.4016 24.8459 19.0962 23.81C19.342 23.4434 19.3738 22.9793 19.3907 22.5382Z" fill="white" stroke="#646464" stroke-width="2" stroke-linecap="round"/>
<path d="M1.35156 22.1351V5C1.35156 2.79086 3.14242 1 5.35156 1H6.92416H7.21077C9.41991 1 11.2108 2.79086 11.2108 5V7.37323C11.2108 9.58237 13.0016 11.3732 15.2108 11.3732H17.212C18.6325 11.3732 19.784 12.5247 19.784 13.9452V22.1351C19.784 24.3443 17.9931 26.1351 15.784 26.1351H5.35156C3.14242 26.1351 1.35156 24.3443 1.35156 22.1351Z" fill="white" stroke="#646464" stroke-width="2"/>
<path d="M25.256 28.4031L25.5756 20.094C25.6231 18.8591 25.2115 17.6503 24.4204 16.7009L21.4601 13.1487L17.5792 8.67068C16.6002 7.54108 15.1255 6.96942 13.6409 7.14408C11.0639 7.44726 9.27245 9.85571 9.72333 12.4111L10.8648 18.8808C11.1959 20.7573 12.5901 22.2999 14.1154 23.442C17.8547 26.2417 21.7942 31.416 23.1358 29.0676C23.3427 28.7054 24.2668 30.7107 24.9614 29.6749C25.2072 29.3083 25.239 28.8441 25.256 28.4031Z" fill="white" stroke="#646464" stroke-width="2" stroke-linecap="round"/>
<path d="M7.2168 28V10.8649C7.2168 8.65573 9.00766 6.86487 11.2168 6.86487H12.7894H13.076C15.2851 6.86487 17.076 8.65573 17.076 10.8649V13.2381C17.076 15.4472 18.8669 17.2381 21.076 17.2381H23.0773C24.4977 17.2381 25.6492 18.3896 25.6492 19.8101V28C25.6492 30.2091 23.8584 32 21.6492 32H11.2168C9.00766 32 7.2168 30.2091 7.2168 28Z" fill="white" stroke="#646464" stroke-width="2"/>
</svg>
